<svg xmlns="http://www.w3.org/2000/svg" width="29.682" height="38.527" viewBox="0 0 29.682 38.527">
  <g id="icon-4" transform="translate(-594.104 -365.576)">
    <g id="Group_22" data-name="Group 22">
      <path id="Path_22" data-name="Path 22" d="M608.944,404.1a2.466,2.466,0,0,1-1.218-.32c-10.653-6.05-13.132-12.835-13.52-14.133a2.381,2.381,0,0,1-.1-.7V376.588a2.453,2.453,0,0,1,1.96-2.4,17.44,17.44,0,0,0,10.838-7.509h0a2.441,2.441,0,0,1,2.042-1.1h0a2.446,2.446,0,0,1,2.043,1.1,17.433,17.433,0,0,0,10.836,7.51,2.452,2.452,0,0,1,1.961,2.4v12.363a2.429,2.429,0,0,1-.1.7c-.39,1.3-2.873,8.088-13.517,14.134A2.484,2.484,0,0,1,608.944,404.1Zm-11.876-15.229c.319.99,2.529,6.806,11.877,12.193,9.367-5.4,11.568-11.232,11.877-12.193V376.995a20.315,20.315,0,0,1-11.877-8.063,20.322,20.322,0,0,1-11.877,8.063Zm-.026-.084,0,.006Zm12.331-20.48Z" fill="#8c54ff"/>
    </g>
    <g id="Group_23" data-name="Group 23">
      <path id="Path_23" data-name="Path 23" d="M607.851,390.841h-.017a2.368,2.368,0,0,1-1.725-.764l-3.128-3.431a1.482,1.482,0,1,1,2.189-2l2.688,2.947,5.5-5.846a1.482,1.482,0,0,1,2.159,2.032L609.57,390.1A2.367,2.367,0,0,1,607.851,390.841Z" fill="#00235d"/>
    </g>
  </g>
</svg>
