<?xml version="1.0" encoding="utf-8"?>
<!-- Generator: Adobe Illustrator 23.0.1, SVG Export Plug-In . SVG Version: 6.00 Build 0)  -->
<svg version="1.1" id="Layer_1" xmlns="http://www.w3.org/2000/svg" xmlns:xlink="http://www.w3.org/1999/xlink" x="0px" y="0px"
	 viewBox="0 0 207.67 43.88" style="enable-background:new 0 0 207.67 43.88;" xml:space="preserve">
<style type="text/css">
	.st0{fill:#FFFFFF;}
</style>
<g>
	<g>
		<path class="st0" d="M165.07,13.82V26.4c0,0.96,0.07,2.15-0.05,3.16c-0.12,1.02-0.27,1.73-0.69,2.57
			c-0.42,0.84-1.25,1.52-1.99,2.02c-0.75,0.51-2.65,0.75-3.91,0.75c-1.31,0-3.51-0.25-4.29-0.76c-0.78-0.5-1.37-1.18-1.79-2.01
			c-0.42-0.83-0.59-1.76-0.7-2.77c-0.12-1.01-0.06-1.93-0.06-2.88l0-12.34v-0.31c-0.06-1.74-1.06-3.24-2.51-4l0,0
			c-0.65-0.34-1.38-0.53-2.16-0.53c-0.78,0-1.52,0.19-2.17,0.53l0,0c-1.46,0.77-2.47,2.28-2.51,4.04v0.22v12.86
			c0,5.19,1.25,9.28,3.76,12.26c2.5,2.98,7.42,4.47,12.43,4.47c4.83,0,9.67-1.44,12.21-4.34c2.54-2.89,3.8-7.03,3.8-12.4v-13l0,0.03
			c0-1.8-1.02-3.37-2.51-4.15l0,0c-0.65-0.34-1.39-0.54-2.17-0.54c-0.78,0-1.52,0.19-2.17,0.54l0,0c-1.49,0.78-2.51,2.34-2.51,4.15"
			/>
		<path class="st0" d="M92.19,14.39v-0.58c0.1-1.69,1.08-3.14,2.5-3.9l0,0c0.67-0.36,1.43-0.56,2.24-0.56c0.81,0,1.57,0.2,2.24,0.56
			l0,0c1.5,0.8,2.51,2.38,2.51,4.19l0,0.01v22.6c0,1.77-0.73,3.3-2.18,4.57c-1.45,1.28-3.19,1.91-5.21,1.91
			c-2.72,0-4.8-1.03-6.25-3.08L77.08,22.68v16.21l-0.01,0.04c0,1.87-1.08,3.48-2.65,4.26l0,0c-0.63,0.31-1.35,0.49-2.1,0.49
			c-0.75,0-1.47-0.18-2.1-0.49l0,0c-1.46-0.72-2.49-2.16-2.63-3.86v-0.81l0,0V16.4c0-1.78,0.72-3.3,2.18-4.58
			c1.45-1.27,3.19-1.91,5.21-1.91c2.72,0,4.8,1.01,6.26,3.04l10.96,17.42V14.39"/>
		<path class="st0" d="M129.49,14.39v-0.58c0.1-1.69,1.08-3.14,2.5-3.9l0,0c0.67-0.36,1.43-0.56,2.24-0.56
			c0.81,0,1.57,0.2,2.24,0.56l0,0c1.5,0.8,2.51,2.38,2.51,4.19l0,0.01v22.6c0,1.77-0.73,3.3-2.18,4.57
			c-1.45,1.28-3.19,1.91-5.21,1.91c-2.72,0-4.8-1.03-6.25-3.08l-10.97-17.43v16.21l-0.01,0.04c0,1.87-1.08,3.48-2.65,4.26l0,0
			c-0.63,0.31-1.35,0.49-2.1,0.49c-0.75,0-1.47-0.18-2.1-0.49l0,0c-1.46-0.72-2.49-2.16-2.63-3.86v-0.81l0,0V16.4
			c0-1.78,0.72-3.3,2.18-4.58c1.45-1.27,3.19-1.91,5.21-1.91c2.72,0,4.8,1.01,6.26,3.04l10.96,17.42V14.39"/>
		<path class="st0" d="M60.38,43.66c0,0,3.45-0.4,3.94-4.13c0.02-0.12,0.02-0.24,0.02-0.36l0.01-24.37c0-1.18-0.46-2.94-2.13-4.01
			c-1.23-0.79-2.78-0.96-4.16-0.5c-0.82,0.27-1.74,0.79-2.48,1.77c-2.7-1.75-5.58-2.65-9.04-2.65c-9.52,0-17.24,7.72-17.24,17.24
			c0,9.52,7.72,17.24,17.24,17.24c3.31,0,6.39-1.01,9.02-2.63C55.54,41.25,56.99,44.11,60.38,43.66z M46.52,35.5
			c-4.89,0-8.86-3.97-8.86-8.86c0-4.89,3.97-8.86,8.86-8.86s8.86,3.97,8.86,8.86C55.38,31.54,51.42,35.5,46.52,35.5z"/>
		<path class="st0" d="M4.58,0L4.58,0C2.05,0.02,0,2.08,0,4.62s2.05,4.6,4.58,4.61v0h11.75v34.5h9.74V9.23h12.26L43.64,0H4.58z"/>
		<path class="st0" d="M177.13,35.61c1.12,2.99,4.66,8.28,15.64,8.28c2.27,0,4.43-0.29,6.31-0.71c2.19-0.48,3.57-1.36,4.75-2.22
			c1.32-0.96,2.28-2.19,2.98-3.53c0.7-1.34,0.86-2.95,0.85-4.51c-0.05-10.47-19.72-9.62-20.81-13.18c-0.72-2.35,1.56-3.17,2.49-3.31
			c1.22-0.18,2.33-0.24,3.1-0.18c2.38,0.16,4.64,1.05,5.34,3c0,0,0.32,0.9,0.57,1.26l0,0c0.78,1.14,2.21,2.03,3.81,2.03
			c1.61,0,2.92-1.08,3.63-2.09c0.42-0.6,1.01-2.19,0.38-3.9c-1.8-4.85-6.77-7.33-13.47-7.41c-2.18-0.03-4.87,0.01-6.95,0.56
			c-1.62,0.42-3.5,1.21-4.67,2.17c-0.87,0.71-1.86,1.86-2.53,3.2c-0.63,1.25-0.96,2.95-0.84,4.39c0.86,10.58,19.7,9.47,20.9,12.99
			c0.12,0.36,0.17,0.73,0.15,1.16c-0.04,0.77-0.47,1.31-1.11,1.83c-0.9,0.72-2.99,1.03-4.95,1.03c-3.86,0-6.08-1-6.65-3.63
			l0.03,0.16c-0.1-0.57-0.33-1.11-0.66-1.58l0,0c-0.83-1.19-2.3-1.99-3.99-1.99c0,0-2.28-0.13-3.76,1.84
			C176.23,33.19,177.13,35.61,177.13,35.61z"/>
	</g>
</g>
</svg>
